<mxfile host="app.diagrams.net" modified="2023-12-03T20:19:29.572Z" agent="Mozilla/5.0 (X11; Linux x86_64; rv:109.0) Gecko/20100101 Firefox/115.0" version="22.1.5" etag="Fs-R05pvdTVqlEgWu38z" type="github">
  <diagram name="PÃ¡gina-1" id="alibKGlUhTbMBsRk6Oys">
    <mxGraphModel>
      <root>
        <mxCell id="0" />
        <mxCell id="1" parent="0" />
      </root>
    </mxGraphModel>
  </diagram>
</mxfile>
